<svg width="24" height="24" viewBox="0 0 24 24" fill="none" xmlns="http://www.w3.org/2000/svg">
<path d="M11.65 2.35002L6.35996 7.64002C6.15996 7.84002 6.15996 8.15002 6.35996 8.35002L7.64995 9.64002C7.84995 9.84002 8.15996 9.84002 8.35996 9.64002L11.65 6.35002C11.85 6.15002 12.16 6.15002 12.36 6.35002L15.65 9.64002C15.85 9.84002 16.16 9.84002 16.36 9.64002L17.65 8.35002C17.85 8.15002 17.85 7.84002 17.65 7.64002L12.36 2.35002C12.16 2.16002 11.84 2.16002 11.65 2.35002Z" fill="#FFC01E"/>
<path d="M11.65 21.65L6.35996 16.36C6.15996 16.16 6.15996 15.85 6.35996 15.65L7.64995 14.36C7.84995 14.16 8.15996 14.16 8.35996 14.36L11.65 17.65C11.85 17.85 12.16 17.85 12.36 17.65L15.65 14.36C15.85 14.16 16.16 14.16 16.36 14.36L17.65 15.65C17.85 15.85 17.85 16.16 17.65 16.36L12.36 21.65C12.16 21.84 11.84 21.84 11.65 21.65Z" fill="#FFC01E"/>
<path d="M20.1002 10.1L21.6402 11.64C21.8402 11.84 21.8402 12.15 21.6402 12.35L20.1002 13.89C19.9002 14.09 19.5902 14.09 19.3902 13.89L17.8502 12.35C17.6502 12.15 17.6502 11.84 17.8502 11.64L19.3902 10.1C19.5902 9.91002 19.9102 9.91002 20.1002 10.1Z" fill="#FFC01E"/>
<path d="M4.6002 10.1L6.14019 11.64C6.34019 11.84 6.34019 12.15 6.14019 12.35L4.6002 13.89C4.4002 14.09 4.09019 14.09 3.89019 13.89L2.3502 12.35C2.1502 12.15 2.1502 11.84 2.3502 11.64L3.89019 10.1C4.09019 9.91002 4.4102 9.91002 4.6002 10.1Z" fill="#FFC01E"/>
<path d="M12.3502 9.87998L14.1202 11.65C14.3202 11.85 14.3202 12.16 14.1202 12.36L12.3502 14.13C12.1502 14.33 11.8402 14.33 11.6402 14.13L9.87021 12.36C9.67021 12.16 9.67021 11.85 9.87021 11.65L11.6402 9.87998C11.8402 9.67998 12.1602 9.67998 12.3502 9.87998Z" fill="#FFC01E"/>
</svg>
