<svg width="18" height="18" viewBox="0 0 18 18" fill="none" xmlns="http://www.w3.org/2000/svg">
<path d="M4.875 17.0625C4.5675 17.0625 4.3125 16.8075 4.3125 16.5V11.25C4.3125 10.9425 4.5675 10.6875 4.875 10.6875C5.1825 10.6875 5.4375 10.9425 5.4375 11.25V16.5C5.4375 16.8075 5.1825 17.0625 4.875 17.0625Z" fill="#9E9E9E"/>
<path d="M4.875 4.3125C4.5675 4.3125 4.3125 4.0575 4.3125 3.75V1.5C4.3125 1.1925 4.5675 0.9375 4.875 0.9375C5.1825 0.9375 5.4375 1.1925 5.4375 1.5V3.75C5.4375 4.0575 5.1825 4.3125 4.875 4.3125Z" fill="#9E9E9E"/>
<path d="M13.125 17.0625C12.8175 17.0625 12.5625 16.8075 12.5625 16.5V14.25C12.5625 13.9425 12.8175 13.6875 13.125 13.6875C13.4325 13.6875 13.6875 13.9425 13.6875 14.25V16.5C13.6875 16.8075 13.4325 17.0625 13.125 17.0625Z" fill="#9E9E9E"/>
<path d="M13.125 7.3125C12.8175 7.3125 12.5625 7.0575 12.5625 6.75V1.5C12.5625 1.1925 12.8175 0.9375 13.125 0.9375C13.4325 0.9375 13.6875 1.1925 13.6875 1.5V6.75C13.6875 7.0575 13.4325 7.3125 13.125 7.3125Z" fill="#9E9E9E"/>
<path d="M5.625 11.8125H4.125C2.835 11.8125 2.0625 11.04 2.0625 9.75V5.25C2.0625 3.96 2.835 3.1875 4.125 3.1875H5.625C6.915 3.1875 7.6875 3.96 7.6875 5.25V9.75C7.6875 11.04 6.915 11.8125 5.625 11.8125ZM4.125 4.3125C3.4575 4.3125 3.1875 4.5825 3.1875 5.25V9.75C3.1875 10.4175 3.4575 10.6875 4.125 10.6875H5.625C6.2925 10.6875 6.5625 10.4175 6.5625 9.75V5.25C6.5625 4.5825 6.2925 4.3125 5.625 4.3125H4.125Z" fill="#9E9E9E"/>
<path d="M13.875 14.8125H12.375C11.085 14.8125 10.3125 14.04 10.3125 12.75V8.25C10.3125 6.96 11.085 6.1875 12.375 6.1875H13.875C15.165 6.1875 15.9375 6.96 15.9375 8.25V12.75C15.9375 14.04 15.165 14.8125 13.875 14.8125ZM12.375 7.3125C11.7075 7.3125 11.4375 7.5825 11.4375 8.25V12.75C11.4375 13.4175 11.7075 13.6875 12.375 13.6875H13.875C14.5425 13.6875 14.8125 13.4175 14.8125 12.75V8.25C14.8125 7.5825 14.5425 7.3125 13.875 7.3125H12.375Z" fill="#9E9E9E"/>
</svg>
