<svg width="682" height="251" viewBox="0 0 682 251" fill="none" xmlns="http://www.w3.org/2000/svg">
<path d="M58 48.5L67.5 24L74 48.5L83 36.5L91 48.5L100 42L106 48.5L118.5 57.5L128.5 48.5L143 66L152.5 48.5L166 36.5L180.5 48.5L197.5 124L220.5 106.5L241 115.5L259 106.5L274.5 115.5L290.5 56.5L307.5 74L326 56.5L337 92L349.5 56.5L362 65.5L379 56.5L391.5 44.5L405 56.5L422 65.5L431.5 56.5L445 91.5L459.5 98L477.5 115.5L490.5 124L513 117.5L524 124L536.5 159.5L549.5 124L562.5 91.5L573 124H597L606 141.5L619.5 124L639 99.5L655.5 124L668 159.5L681 124" stroke="#3A6FF8" stroke-width="2" stroke-linecap="round"/>
<path opacity="0.02" d="M67.5 24L58 48.5V212H681V124L668 159.5L655.5 124L639 99.5L619.5 124L606 141.5L597 124H573L562.5 91.5L549.5 124L536.5 159.5L524 124L513 117.5L490.5 124L477.5 115.5L459.5 98L445 91.5L431.5 56.5L422 65.5L405 56.5L391.5 44.5L379 56.5L362 65.5L349.5 56.5L337 92L326 56.5L307.5 74L290.5 56.5L274.5 115.5L259 106.5L241 115.5L220.5 106.5L197.5 124L180.5 48.5L166 36.5L152.5 48.5L143 66L128.5 48.5L118.5 57.5L106 48.5L100 42L91 48.5L83 36.5L74 48.5L67.5 24Z" fill="#3A6FF8"/>
<path d="M59.456 239.32V238.324H61.712V247H60.608V239.32H59.456ZM64.9918 244.672C65.0718 245.128 65.2558 245.48 65.5438 245.728C65.8398 245.976 66.2358 246.1 66.7318 246.1C67.3958 246.1 67.8838 245.84 68.1958 245.32C68.5158 244.8 68.6678 243.924 68.6518 242.692C68.4838 243.052 68.2038 243.336 67.8118 243.544C67.4198 243.744 66.9838 243.844 66.5038 243.844C65.9678 243.844 65.4878 243.736 65.0638 243.52C64.6478 243.296 64.3198 242.972 64.0798 242.548C63.8398 242.124 63.7198 241.612 63.7198 241.012C63.7198 240.156 63.9678 239.468 64.4638 238.948C64.9598 238.42 65.6638 238.156 66.5758 238.156C67.6958 238.156 68.4798 238.52 68.9278 239.248C69.3838 239.976 69.6118 241.06 69.6118 242.5C69.6118 243.508 69.5198 244.34 69.3358 244.996C69.1598 245.652 68.8558 246.152 68.4238 246.496C67.9998 246.84 67.4158 247.012 66.6718 247.012C65.8558 247.012 65.2198 246.792 64.7638 246.352C64.3078 245.912 64.0478 245.352 63.9838 244.672H64.9918ZM66.6838 242.92C67.2198 242.92 67.6598 242.756 68.0038 242.428C68.3478 242.092 68.5198 241.64 68.5198 241.072C68.5198 240.472 68.3518 239.988 68.0158 239.62C67.6798 239.252 67.2078 239.068 66.5998 239.068C66.0398 239.068 65.5918 239.244 65.2558 239.596C64.9278 239.948 64.7638 240.412 64.7638 240.988C64.7638 241.572 64.9278 242.04 65.2558 242.392C65.5838 242.744 66.0598 242.92 66.6838 242.92ZM71.6743 247.072C71.4663 247.072 71.2903 247 71.1463 246.856C71.0023 246.712 70.9303 246.536 70.9303 246.328C70.9303 246.12 71.0023 245.944 71.1463 245.8C71.2903 245.656 71.4663 245.584 71.6743 245.584C71.8743 245.584 72.0423 245.656 72.1783 245.8C72.3223 245.944 72.3943 246.12 72.3943 246.328C72.3943 246.536 72.3223 246.712 72.1783 246.856C72.0423 247 71.8743 247.072 71.6743 247.072ZM71.6743 241.936C71.4663 241.936 71.2903 241.864 71.1463 241.72C71.0023 241.576 70.9303 241.4 70.9303 241.192C70.9303 240.984 71.0023 240.808 71.1463 240.664C71.2903 240.52 71.4663 240.448 71.6743 240.448C71.8743 240.448 72.0423 240.52 72.1783 240.664C72.3223 240.808 72.3943 240.984 72.3943 241.192C72.3943 241.4 72.3223 241.576 72.1783 241.72C72.0423 241.864 71.8743 241.936 71.6743 241.936ZM73.701 242.572C73.701 241.196 73.925 240.124 74.373 239.356C74.821 238.58 75.605 238.192 76.725 238.192C77.837 238.192 78.617 238.58 79.065 239.356C79.513 240.124 79.737 241.196 79.737 242.572C79.737 243.972 79.513 245.06 79.065 245.836C78.617 246.612 77.837 247 76.725 247C75.605 247 74.821 246.612 74.373 245.836C73.925 245.06 73.701 243.972 73.701 242.572ZM78.657 242.572C78.657 241.876 78.609 241.288 78.513 240.808C78.425 240.32 78.237 239.928 77.949 239.632C77.669 239.336 77.261 239.188 76.725 239.188C76.181 239.188 75.765 239.336 75.477 239.632C75.197 239.928 75.009 240.32 74.913 240.808C74.825 241.288 74.781 241.876 74.781 242.572C74.781 243.292 74.825 243.896 74.913 244.384C75.009 244.872 75.197 245.264 75.477 245.56C75.765 245.856 76.181 246.004 76.725 246.004C77.261 246.004 77.669 245.856 77.949 245.56C78.237 245.264 78.425 244.872 78.513 244.384C78.609 243.896 78.657 243.292 78.657 242.572ZM81.2362 242.572C81.2362 241.196 81.4602 240.124 81.9082 239.356C82.3562 238.58 83.1402 238.192 84.2602 238.192C85.3722 238.192 86.1522 238.58 86.6002 239.356C87.0482 240.124 87.2722 241.196 87.2722 242.572C87.2722 243.972 87.0482 245.06 86.6002 245.836C86.1522 246.612 85.3722 247 84.2602 247C83.1402 247 82.3562 246.612 81.9082 245.836C81.4602 245.06 81.2362 243.972 81.2362 242.572ZM86.1922 242.572C86.1922 241.876 86.1442 241.288 86.0482 240.808C85.9602 240.32 85.7722 239.928 85.4842 239.632C85.2042 239.336 84.7962 239.188 84.2602 239.188C83.7162 239.188 83.3002 239.336 83.0122 239.632C82.7322 239.928 82.5442 240.32 82.4482 240.808C82.3602 241.288 82.3162 241.876 82.3162 242.572C82.3162 243.292 82.3602 243.896 82.4482 244.384C82.5442 244.872 82.7322 245.264 83.0122 245.56C83.3002 245.856 83.7162 246.004 84.2602 246.004C84.7962 246.004 85.2042 245.856 85.4842 245.56C85.7722 245.264 85.9602 244.872 86.0482 244.384C86.1442 243.896 86.1922 243.292 86.1922 242.572Z" fill="#9E9E9E"/>
<path d="M177.456 239.32V238.324H179.712V247H178.608V239.32H177.456ZM182.992 244.672C183.072 245.128 183.256 245.48 183.544 245.728C183.84 245.976 184.236 246.1 184.732 246.1C185.396 246.1 185.884 245.84 186.196 245.32C186.516 244.8 186.668 243.924 186.652 242.692C186.484 243.052 186.204 243.336 185.812 243.544C185.42 243.744 184.984 243.844 184.504 243.844C183.968 243.844 183.488 243.736 183.064 243.52C182.648 243.296 182.32 242.972 182.08 242.548C181.84 242.124 181.72 241.612 181.72 241.012C181.72 240.156 181.968 239.468 182.464 238.948C182.96 238.42 183.664 238.156 184.576 238.156C185.696 238.156 186.48 238.52 186.928 239.248C187.384 239.976 187.612 241.06 187.612 242.5C187.612 243.508 187.52 244.34 187.336 244.996C187.16 245.652 186.856 246.152 186.424 246.496C186 246.84 185.416 247.012 184.672 247.012C183.856 247.012 183.22 246.792 182.764 246.352C182.308 245.912 182.048 245.352 181.984 244.672H182.992ZM184.684 242.92C185.22 242.92 185.66 242.756 186.004 242.428C186.348 242.092 186.52 241.64 186.52 241.072C186.52 240.472 186.352 239.988 186.016 239.62C185.68 239.252 185.208 239.068 184.6 239.068C184.04 239.068 183.592 239.244 183.256 239.596C182.928 239.948 182.764 240.412 182.764 240.988C182.764 241.572 182.928 242.04 183.256 242.392C183.584 242.744 184.06 242.92 184.684 242.92ZM189.674 247.072C189.466 247.072 189.29 247 189.146 246.856C189.002 246.712 188.93 246.536 188.93 246.328C188.93 246.12 189.002 245.944 189.146 245.8C189.29 245.656 189.466 245.584 189.674 245.584C189.874 245.584 190.042 245.656 190.178 245.8C190.322 245.944 190.394 246.12 190.394 246.328C190.394 246.536 190.322 246.712 190.178 246.856C190.042 247 189.874 247.072 189.674 247.072ZM189.674 241.936C189.466 241.936 189.29 241.864 189.146 241.72C189.002 241.576 188.93 241.4 188.93 241.192C188.93 240.984 189.002 240.808 189.146 240.664C189.29 240.52 189.466 240.448 189.674 240.448C189.874 240.448 190.042 240.52 190.178 240.664C190.322 240.808 190.394 240.984 190.394 241.192C190.394 241.4 190.322 241.576 190.178 241.72C190.042 241.864 189.874 241.936 189.674 241.936ZM191.413 239.32V238.324H193.669V247H192.565V239.32H191.413ZM195.545 242.572C195.545 241.196 195.769 240.124 196.217 239.356C196.665 238.58 197.449 238.192 198.569 238.192C199.681 238.192 200.461 238.58 200.909 239.356C201.357 240.124 201.581 241.196 201.581 242.572C201.581 243.972 201.357 245.06 200.909 245.836C200.461 246.612 199.681 247 198.569 247C197.449 247 196.665 246.612 196.217 245.836C195.769 245.06 195.545 243.972 195.545 242.572ZM200.501 242.572C200.501 241.876 200.453 241.288 200.357 240.808C200.269 240.32 200.081 239.928 199.793 239.632C199.513 239.336 199.105 239.188 198.569 239.188C198.025 239.188 197.609 239.336 197.321 239.632C197.041 239.928 196.853 240.32 196.757 240.808C196.669 241.288 196.625 241.876 196.625 242.572C196.625 243.292 196.669 243.896 196.757 244.384C196.853 244.872 197.041 245.264 197.321 245.56C197.609 245.856 198.025 246.004 198.569 246.004C199.105 246.004 199.513 245.856 199.793 245.56C200.081 245.264 200.269 244.872 200.357 244.384C200.453 243.896 200.501 243.292 200.501 242.572Z" fill="#9E9E9E"/>
<path d="M291.456 239.32V238.324H293.712V247H292.608V239.32H291.456ZM296.992 244.672C297.072 245.128 297.256 245.48 297.544 245.728C297.84 245.976 298.236 246.1 298.732 246.1C299.396 246.1 299.884 245.84 300.196 245.32C300.516 244.8 300.668 243.924 300.652 242.692C300.484 243.052 300.204 243.336 299.812 243.544C299.42 243.744 298.984 243.844 298.504 243.844C297.968 243.844 297.488 243.736 297.064 243.52C296.648 243.296 296.32 242.972 296.08 242.548C295.84 242.124 295.72 241.612 295.72 241.012C295.72 240.156 295.968 239.468 296.464 238.948C296.96 238.42 297.664 238.156 298.576 238.156C299.696 238.156 300.48 238.52 300.928 239.248C301.384 239.976 301.612 241.06 301.612 242.5C301.612 243.508 301.52 244.34 301.336 244.996C301.16 245.652 300.856 246.152 300.424 246.496C300 246.84 299.416 247.012 298.672 247.012C297.856 247.012 297.22 246.792 296.764 246.352C296.308 245.912 296.048 245.352 295.984 244.672H296.992ZM298.684 242.92C299.22 242.92 299.66 242.756 300.004 242.428C300.348 242.092 300.52 241.64 300.52 241.072C300.52 240.472 300.352 239.988 300.016 239.62C299.68 239.252 299.208 239.068 298.6 239.068C298.04 239.068 297.592 239.244 297.256 239.596C296.928 239.948 296.764 240.412 296.764 240.988C296.764 241.572 296.928 242.04 297.256 242.392C297.584 242.744 298.06 242.92 298.684 242.92ZM303.674 247.072C303.466 247.072 303.29 247 303.146 246.856C303.002 246.712 302.93 246.536 302.93 246.328C302.93 246.12 303.002 245.944 303.146 245.8C303.29 245.656 303.466 245.584 303.674 245.584C303.874 245.584 304.042 245.656 304.178 245.8C304.322 245.944 304.394 246.12 304.394 246.328C304.394 246.536 304.322 246.712 304.178 246.856C304.042 247 303.874 247.072 303.674 247.072ZM303.674 241.936C303.466 241.936 303.29 241.864 303.146 241.72C303.002 241.576 302.93 241.4 302.93 241.192C302.93 240.984 303.002 240.808 303.146 240.664C303.29 240.52 303.466 240.448 303.674 240.448C303.874 240.448 304.042 240.52 304.178 240.664C304.322 240.808 304.394 240.984 304.394 241.192C304.394 241.4 304.322 241.576 304.178 241.72C304.042 241.864 303.874 241.936 303.674 241.936ZM305.569 246.124C306.585 245.308 307.381 244.64 307.957 244.12C308.533 243.592 309.017 243.044 309.409 242.476C309.809 241.9 310.009 241.336 310.009 240.784C310.009 240.264 309.881 239.856 309.625 239.56C309.377 239.256 308.973 239.104 308.413 239.104C307.869 239.104 307.445 239.276 307.141 239.62C306.845 239.956 306.685 240.408 306.661 240.976H305.605C305.637 240.08 305.909 239.388 306.421 238.9C306.933 238.412 307.593 238.168 308.401 238.168C309.225 238.168 309.877 238.396 310.357 238.852C310.845 239.308 311.089 239.936 311.089 240.736C311.089 241.4 310.889 242.048 310.489 242.68C310.097 243.304 309.649 243.856 309.145 244.336C308.641 244.808 307.997 245.36 307.213 245.992H311.341V246.904H305.569V246.124ZM312.603 242.572C312.603 241.196 312.827 240.124 313.275 239.356C313.723 238.58 314.507 238.192 315.627 238.192C316.739 238.192 317.519 238.58 317.967 239.356C318.415 240.124 318.639 241.196 318.639 242.572C318.639 243.972 318.415 245.06 317.967 245.836C317.519 246.612 316.739 247 315.627 247C314.507 247 313.723 246.612 313.275 245.836C312.827 245.06 312.603 243.972 312.603 242.572ZM317.559 242.572C317.559 241.876 317.511 241.288 317.415 240.808C317.327 240.32 317.139 239.928 316.851 239.632C316.571 239.336 316.163 239.188 315.627 239.188C315.083 239.188 314.667 239.336 314.379 239.632C314.099 239.928 313.911 240.32 313.815 240.808C313.727 241.288 313.683 241.876 313.683 242.572C313.683 243.292 313.727 243.896 313.815 244.384C313.911 244.872 314.099 245.264 314.379 245.56C314.667 245.856 315.083 246.004 315.627 246.004C316.163 246.004 316.571 245.856 316.851 245.56C317.139 245.264 317.327 244.872 317.415 244.384C317.511 243.896 317.559 243.292 317.559 242.572Z" fill="#9E9E9E"/>
<path d="M408.456 239.32V238.324H410.712V247H409.608V239.32H408.456ZM413.992 244.672C414.072 245.128 414.256 245.48 414.544 245.728C414.84 245.976 415.236 246.1 415.732 246.1C416.396 246.1 416.884 245.84 417.196 245.32C417.516 244.8 417.668 243.924 417.652 242.692C417.484 243.052 417.204 243.336 416.812 243.544C416.42 243.744 415.984 243.844 415.504 243.844C414.968 243.844 414.488 243.736 414.064 243.52C413.648 243.296 413.32 242.972 413.08 242.548C412.84 242.124 412.72 241.612 412.72 241.012C412.72 240.156 412.968 239.468 413.464 238.948C413.96 238.42 414.664 238.156 415.576 238.156C416.696 238.156 417.48 238.52 417.928 239.248C418.384 239.976 418.612 241.06 418.612 242.5C418.612 243.508 418.52 244.34 418.336 244.996C418.16 245.652 417.856 246.152 417.424 246.496C417 246.84 416.416 247.012 415.672 247.012C414.856 247.012 414.22 246.792 413.764 246.352C413.308 245.912 413.048 245.352 412.984 244.672H413.992ZM415.684 242.92C416.22 242.92 416.66 242.756 417.004 242.428C417.348 242.092 417.52 241.64 417.52 241.072C417.52 240.472 417.352 239.988 417.016 239.62C416.68 239.252 416.208 239.068 415.6 239.068C415.04 239.068 414.592 239.244 414.256 239.596C413.928 239.948 413.764 240.412 413.764 240.988C413.764 241.572 413.928 242.04 414.256 242.392C414.584 242.744 415.06 242.92 415.684 242.92ZM420.674 247.072C420.466 247.072 420.29 247 420.146 246.856C420.002 246.712 419.93 246.536 419.93 246.328C419.93 246.12 420.002 245.944 420.146 245.8C420.29 245.656 420.466 245.584 420.674 245.584C420.874 245.584 421.042 245.656 421.178 245.8C421.322 245.944 421.394 246.12 421.394 246.328C421.394 246.536 421.322 246.712 421.178 246.856C421.042 247 420.874 247.072 420.674 247.072ZM420.674 241.936C420.466 241.936 420.29 241.864 420.146 241.72C420.002 241.576 419.93 241.4 419.93 241.192C419.93 240.984 420.002 240.808 420.146 240.664C420.29 240.52 420.466 240.448 420.674 240.448C420.874 240.448 421.042 240.52 421.178 240.664C421.322 240.808 421.394 240.984 421.394 241.192C421.394 241.4 421.322 241.576 421.178 241.72C421.042 241.864 420.874 241.936 420.674 241.936ZM422.677 240.508C422.733 239.772 423.017 239.196 423.529 238.78C424.041 238.364 424.705 238.156 425.521 238.156C426.065 238.156 426.533 238.256 426.925 238.456C427.325 238.648 427.625 238.912 427.825 239.248C428.033 239.584 428.137 239.964 428.137 240.388C428.137 240.884 427.993 241.312 427.705 241.672C427.425 242.032 427.057 242.264 426.601 242.368V242.428C427.121 242.556 427.533 242.808 427.837 243.184C428.141 243.56 428.293 244.052 428.293 244.66C428.293 245.116 428.189 245.528 427.981 245.896C427.773 246.256 427.461 246.54 427.045 246.748C426.629 246.956 426.129 247.06 425.545 247.06C424.697 247.06 424.001 246.84 423.457 246.4C422.913 245.952 422.609 245.32 422.545 244.504H423.601C423.657 244.984 423.853 245.376 424.189 245.68C424.525 245.984 424.973 246.136 425.533 246.136C426.093 246.136 426.517 245.992 426.805 245.704C427.101 245.408 427.249 245.028 427.249 244.564C427.249 243.964 427.049 243.532 426.649 243.268C426.249 243.004 425.645 242.872 424.837 242.872H424.561V241.96H424.849C425.585 241.952 426.141 241.832 426.517 241.6C426.893 241.36 427.081 240.992 427.081 240.496C427.081 240.072 426.941 239.732 426.661 239.476C426.389 239.22 425.997 239.092 425.485 239.092C424.989 239.092 424.589 239.22 424.285 239.476C423.981 239.732 423.801 240.076 423.745 240.508H422.677ZM429.767 242.572C429.767 241.196 429.991 240.124 430.439 239.356C430.887 238.58 431.671 238.192 432.791 238.192C433.903 238.192 434.683 238.58 435.131 239.356C435.579 240.124 435.803 241.196 435.803 242.572C435.803 243.972 435.579 245.06 435.131 245.836C434.683 246.612 433.903 247 432.791 247C431.671 247 430.887 246.612 430.439 245.836C429.991 245.06 429.767 243.972 429.767 242.572ZM434.723 242.572C434.723 241.876 434.675 241.288 434.579 240.808C434.491 240.32 434.303 239.928 434.015 239.632C433.735 239.336 433.327 239.188 432.791 239.188C432.247 239.188 431.831 239.336 431.543 239.632C431.263 239.928 431.075 240.32 430.979 240.808C430.891 241.288 430.847 241.876 430.847 242.572C430.847 243.292 430.891 243.896 430.979 244.384C431.075 244.872 431.263 245.264 431.543 245.56C431.831 245.856 432.247 246.004 432.791 246.004C433.327 246.004 433.735 245.856 434.015 245.56C434.303 245.264 434.491 244.872 434.579 244.384C434.675 243.896 434.723 243.292 434.723 242.572Z" fill="#9E9E9E"/>
<path d="M525.456 239.32V238.324H527.712V247H526.608V239.32H525.456ZM530.992 244.672C531.072 245.128 531.256 245.48 531.544 245.728C531.84 245.976 532.236 246.1 532.732 246.1C533.396 246.1 533.884 245.84 534.196 245.32C534.516 244.8 534.668 243.924 534.652 242.692C534.484 243.052 534.204 243.336 533.812 243.544C533.42 243.744 532.984 243.844 532.504 243.844C531.968 243.844 531.488 243.736 531.064 243.52C530.648 243.296 530.32 242.972 530.08 242.548C529.84 242.124 529.72 241.612 529.72 241.012C529.72 240.156 529.968 239.468 530.464 238.948C530.96 238.42 531.664 238.156 532.576 238.156C533.696 238.156 534.48 238.52 534.928 239.248C535.384 239.976 535.612 241.06 535.612 242.5C535.612 243.508 535.52 244.34 535.336 244.996C535.16 245.652 534.856 246.152 534.424 246.496C534 246.84 533.416 247.012 532.672 247.012C531.856 247.012 531.22 246.792 530.764 246.352C530.308 245.912 530.048 245.352 529.984 244.672H530.992ZM532.684 242.92C533.22 242.92 533.66 242.756 534.004 242.428C534.348 242.092 534.52 241.64 534.52 241.072C534.52 240.472 534.352 239.988 534.016 239.62C533.68 239.252 533.208 239.068 532.6 239.068C532.04 239.068 531.592 239.244 531.256 239.596C530.928 239.948 530.764 240.412 530.764 240.988C530.764 241.572 530.928 242.04 531.256 242.392C531.584 242.744 532.06 242.92 532.684 242.92ZM537.674 247.072C537.466 247.072 537.29 247 537.146 246.856C537.002 246.712 536.93 246.536 536.93 246.328C536.93 246.12 537.002 245.944 537.146 245.8C537.29 245.656 537.466 245.584 537.674 245.584C537.874 245.584 538.042 245.656 538.178 245.8C538.322 245.944 538.394 246.12 538.394 246.328C538.394 246.536 538.322 246.712 538.178 246.856C538.042 247 537.874 247.072 537.674 247.072ZM537.674 241.936C537.466 241.936 537.29 241.864 537.146 241.72C537.002 241.576 536.93 241.4 536.93 241.192C536.93 240.984 537.002 240.808 537.146 240.664C537.29 240.52 537.466 240.448 537.674 240.448C537.874 240.448 538.042 240.52 538.178 240.664C538.322 240.808 538.394 240.984 538.394 241.192C538.394 241.4 538.322 241.576 538.178 241.72C538.042 241.864 537.874 241.936 537.674 241.936ZM539.437 245.068V244.24L543.649 238.408H544.957V244.12H546.157V245.068H544.957V247H543.877V245.068H539.437ZM543.925 239.548L540.697 244.12H543.925V239.548ZM547.248 242.572C547.248 241.196 547.472 240.124 547.92 239.356C548.368 238.58 549.152 238.192 550.272 238.192C551.384 238.192 552.164 238.58 552.612 239.356C553.06 240.124 553.284 241.196 553.284 242.572C553.284 243.972 553.06 245.06 552.612 245.836C552.164 246.612 551.384 247 550.272 247C549.152 247 548.368 246.612 547.92 245.836C547.472 245.06 547.248 243.972 547.248 242.572ZM552.204 242.572C552.204 241.876 552.156 241.288 552.06 240.808C551.972 240.32 551.784 239.928 551.496 239.632C551.216 239.336 550.808 239.188 550.272 239.188C549.728 239.188 549.312 239.336 549.024 239.632C548.744 239.928 548.556 240.32 548.46 240.808C548.372 241.288 548.328 241.876 548.328 242.572C548.328 243.292 548.372 243.896 548.46 244.384C548.556 244.872 548.744 245.264 549.024 245.56C549.312 245.856 549.728 246.004 550.272 246.004C550.808 246.004 551.216 245.856 551.496 245.56C551.784 245.264 551.972 244.872 552.06 244.384C552.156 243.896 552.204 243.292 552.204 242.572Z" fill="#9E9E9E"/>
<path d="M643.456 239.32V238.324H645.712V247H644.608V239.32H643.456ZM648.992 244.672C649.072 245.128 649.256 245.48 649.544 245.728C649.84 245.976 650.236 246.1 650.732 246.1C651.396 246.1 651.884 245.84 652.196 245.32C652.516 244.8 652.668 243.924 652.652 242.692C652.484 243.052 652.204 243.336 651.812 243.544C651.42 243.744 650.984 243.844 650.504 243.844C649.968 243.844 649.488 243.736 649.064 243.52C648.648 243.296 648.32 242.972 648.08 242.548C647.84 242.124 647.72 241.612 647.72 241.012C647.72 240.156 647.968 239.468 648.464 238.948C648.96 238.42 649.664 238.156 650.576 238.156C651.696 238.156 652.48 238.52 652.928 239.248C653.384 239.976 653.612 241.06 653.612 242.5C653.612 243.508 653.52 244.34 653.336 244.996C653.16 245.652 652.856 246.152 652.424 246.496C652 246.84 651.416 247.012 650.672 247.012C649.856 247.012 649.22 246.792 648.764 246.352C648.308 245.912 648.048 245.352 647.984 244.672H648.992ZM650.684 242.92C651.22 242.92 651.66 242.756 652.004 242.428C652.348 242.092 652.52 241.64 652.52 241.072C652.52 240.472 652.352 239.988 652.016 239.62C651.68 239.252 651.208 239.068 650.6 239.068C650.04 239.068 649.592 239.244 649.256 239.596C648.928 239.948 648.764 240.412 648.764 240.988C648.764 241.572 648.928 242.04 649.256 242.392C649.584 242.744 650.06 242.92 650.684 242.92ZM655.674 247.072C655.466 247.072 655.29 247 655.146 246.856C655.002 246.712 654.93 246.536 654.93 246.328C654.93 246.12 655.002 245.944 655.146 245.8C655.29 245.656 655.466 245.584 655.674 245.584C655.874 245.584 656.042 245.656 656.178 245.8C656.322 245.944 656.394 246.12 656.394 246.328C656.394 246.536 656.322 246.712 656.178 246.856C656.042 247 655.874 247.072 655.674 247.072ZM655.674 241.936C655.466 241.936 655.29 241.864 655.146 241.72C655.002 241.576 654.93 241.4 654.93 241.192C654.93 240.984 655.002 240.808 655.146 240.664C655.29 240.52 655.466 240.448 655.674 240.448C655.874 240.448 656.042 240.52 656.178 240.664C656.322 240.808 656.394 240.984 656.394 241.192C656.394 241.4 656.322 241.576 656.178 241.72C656.042 241.864 655.874 241.936 655.674 241.936ZM663.233 239.272H659.021V242.008C659.205 241.752 659.477 241.544 659.837 241.384C660.197 241.216 660.585 241.132 661.001 241.132C661.665 241.132 662.205 241.272 662.621 241.552C663.037 241.824 663.333 242.18 663.509 242.62C663.693 243.052 663.785 243.512 663.785 244C663.785 244.576 663.677 245.092 663.461 245.548C663.245 246.004 662.913 246.364 662.465 246.628C662.025 246.892 661.477 247.024 660.821 247.024C659.981 247.024 659.301 246.808 658.781 246.376C658.261 245.944 657.945 245.368 657.833 244.648H658.901C659.005 245.104 659.225 245.46 659.561 245.716C659.897 245.972 660.321 246.1 660.833 246.1C661.465 246.1 661.941 245.912 662.261 245.536C662.581 245.152 662.741 244.648 662.741 244.024C662.741 243.4 662.581 242.92 662.261 242.584C661.941 242.24 661.469 242.068 660.845 242.068C660.421 242.068 660.049 242.172 659.729 242.38C659.417 242.58 659.189 242.856 659.045 243.208H658.013V238.312H663.233V239.272ZM665.236 242.572C665.236 241.196 665.46 240.124 665.908 239.356C666.356 238.58 667.14 238.192 668.26 238.192C669.372 238.192 670.152 238.58 670.6 239.356C671.048 240.124 671.272 241.196 671.272 242.572C671.272 243.972 671.048 245.06 670.6 245.836C670.152 246.612 669.372 247 668.26 247C667.14 247 666.356 246.612 665.908 245.836C665.46 245.06 665.236 243.972 665.236 242.572ZM670.192 242.572C670.192 241.876 670.144 241.288 670.048 240.808C669.96 240.32 669.772 239.928 669.484 239.632C669.204 239.336 668.796 239.188 668.26 239.188C667.716 239.188 667.3 239.336 667.012 239.632C666.732 239.928 666.544 240.32 666.448 240.808C666.36 241.288 666.316 241.876 666.316 242.572C666.316 243.292 666.36 243.896 666.448 244.384C666.544 244.872 666.732 245.264 667.012 245.56C667.3 245.856 667.716 246.004 668.26 246.004C668.796 246.004 669.204 245.856 669.484 245.56C669.772 245.264 669.96 244.872 670.048 244.384C670.144 243.896 670.192 243.292 670.192 242.572Z" fill="#9E9E9E"/>
<path d="M6.276 5.272H2.064V8.008C2.248 7.752 2.52 7.544 2.88 7.384C3.24 7.216 3.628 7.132 4.044 7.132C4.708 7.132 5.248 7.272 5.664 7.552C6.08 7.824 6.376 8.18 6.552 8.62C6.736 9.052 6.828 9.512 6.828 10C6.828 10.576 6.72 11.092 6.504 11.548C6.288 12.004 5.956 12.364 5.508 12.628C5.068 12.892 4.52 13.024 3.864 13.024C3.024 13.024 2.344 12.808 1.824 12.376C1.304 11.944 0.988 11.368 0.876 10.648H1.944C2.048 11.104 2.268 11.46 2.604 11.716C2.94 11.972 3.364 12.1 3.876 12.1C4.508 12.1 4.984 11.912 5.304 11.536C5.624 11.152 5.784 10.648 5.784 10.024C5.784 9.4 5.624 8.92 5.304 8.584C4.984 8.24 4.512 8.068 3.888 8.068C3.464 8.068 3.092 8.172 2.772 8.38C2.46 8.58 2.232 8.856 2.088 9.208H1.056V4.312H6.276V5.272ZM8.27916 8.572C8.27916 7.196 8.50316 6.124 8.95116 5.356C9.39916 4.58 10.1832 4.192 11.3032 4.192C12.4152 4.192 13.1952 4.58 13.6432 5.356C14.0912 6.124 14.3152 7.196 14.3152 8.572C14.3152 9.972 14.0912 11.06 13.6432 11.836C13.1952 12.612 12.4152 13 11.3032 13C10.1832 13 9.39916 12.612 8.95116 11.836C8.50316 11.06 8.27916 9.972 8.27916 8.572ZM13.2352 8.572C13.2352 7.876 13.1872 7.288 13.0912 6.808C13.0032 6.32 12.8152 5.928 12.5272 5.632C12.2472 5.336 11.8392 5.188 11.3032 5.188C10.7592 5.188 10.3432 5.336 10.0552 5.632C9.77516 5.928 9.58716 6.32 9.49116 6.808C9.40316 7.288 9.35916 7.876 9.35916 8.572C9.35916 9.292 9.40316 9.896 9.49116 10.384C9.58716 10.872 9.77516 11.264 10.0552 11.56C10.3432 11.856 10.7592 12.004 11.3032 12.004C11.8392 12.004 12.2472 11.856 12.5272 11.56C12.8152 11.264 13.0032 10.872 13.0912 10.384C13.1872 9.896 13.2352 9.292 13.2352 8.572ZM16.3423 13.072C16.1343 13.072 15.9583 13 15.8143 12.856C15.6703 12.712 15.5983 12.536 15.5983 12.328C15.5983 12.12 15.6703 11.944 15.8143 11.8C15.9583 11.656 16.1343 11.584 16.3423 11.584C16.5423 11.584 16.7103 11.656 16.8463 11.8C16.9903 11.944 17.0623 12.12 17.0623 12.328C17.0623 12.536 16.9903 12.712 16.8463 12.856C16.7103 13 16.5423 13.072 16.3423 13.072ZM18.3338 8.572C18.3338 7.196 18.5578 6.124 19.0058 5.356C19.4538 4.58 20.2378 4.192 21.3578 4.192C22.4698 4.192 23.2498 4.58 23.6978 5.356C24.1458 6.124 24.3698 7.196 24.3698 8.572C24.3698 9.972 24.1458 11.06 23.6978 11.836C23.2498 12.612 22.4698 13 21.3578 13C20.2378 13 19.4538 12.612 19.0058 11.836C18.5578 11.06 18.3338 9.972 18.3338 8.572ZM23.2898 8.572C23.2898 7.876 23.2418 7.288 23.1458 6.808C23.0578 6.32 22.8698 5.928 22.5818 5.632C22.3018 5.336 21.8938 5.188 21.3578 5.188C20.8138 5.188 20.3978 5.336 20.1098 5.632C19.8298 5.928 19.6418 6.32 19.5458 6.808C19.4578 7.288 19.4138 7.876 19.4138 8.572C19.4138 9.292 19.4578 9.896 19.5458 10.384C19.6418 10.872 19.8298 11.264 20.1098 11.56C20.3978 11.856 20.8138 12.004 21.3578 12.004C21.8938 12.004 22.3018 11.856 22.5818 11.56C22.8698 11.264 23.0578 10.872 23.1458 10.384C23.2418 9.896 23.2898 9.292 23.2898 8.572ZM25.869 8.572C25.869 7.196 26.093 6.124 26.541 5.356C26.989 4.58 27.773 4.192 28.893 4.192C30.005 4.192 30.785 4.58 31.233 5.356C31.681 6.124 31.905 7.196 31.905 8.572C31.905 9.972 31.681 11.06 31.233 11.836C30.785 12.612 30.005 13 28.893 13C27.773 13 26.989 12.612 26.541 11.836C26.093 11.06 25.869 9.972 25.869 8.572ZM30.825 8.572C30.825 7.876 30.777 7.288 30.681 6.808C30.593 6.32 30.405 5.928 30.117 5.632C29.837 5.336 29.429 5.188 28.893 5.188C28.349 5.188 27.933 5.336 27.645 5.632C27.365 5.928 27.177 6.32 27.081 6.808C26.993 7.288 26.949 7.876 26.949 8.572C26.949 9.292 26.993 9.896 27.081 10.384C27.177 10.872 27.365 11.264 27.645 11.56C27.933 11.856 28.349 12.004 28.893 12.004C29.429 12.004 29.837 11.856 30.117 11.56C30.405 11.264 30.593 10.872 30.681 10.384C30.777 9.896 30.825 9.292 30.825 8.572ZM33.4042 8.572C33.4042 7.196 33.6282 6.124 34.0762 5.356C34.5242 4.58 35.3082 4.192 36.4282 4.192C37.5402 4.192 38.3202 4.58 38.7682 5.356C39.2162 6.124 39.4402 7.196 39.4402 8.572C39.4402 9.972 39.2162 11.06 38.7682 11.836C38.3202 12.612 37.5402 13 36.4282 13C35.3082 13 34.5242 12.612 34.0762 11.836C33.6282 11.06 33.4042 9.972 33.4042 8.572ZM38.3602 8.572C38.3602 7.876 38.3122 7.288 38.2162 6.808C38.1282 6.32 37.9402 5.928 37.6522 5.632C37.3722 5.336 36.9642 5.188 36.4282 5.188C35.8842 5.188 35.4682 5.336 35.1802 5.632C34.9002 5.928 34.7122 6.32 34.6162 6.808C34.5282 7.288 34.4842 7.876 34.4842 8.572C34.4842 9.292 34.5282 9.896 34.6162 10.384C34.7122 10.872 34.9002 11.264 35.1802 11.56C35.4682 11.856 35.8842 12.004 36.4282 12.004C36.9642 12.004 37.3722 11.856 37.6522 11.56C37.9402 11.264 38.1282 10.872 38.2162 10.384C38.3122 9.896 38.3602 9.292 38.3602 8.572Z" fill="#9E9E9E"/>
<path d="M0.48 62.068V61.24L4.692 55.408H6V61.12H7.2V62.068H6V64H4.92V62.068H0.48ZM4.968 56.548L1.74 61.12H4.968V56.548ZM8.29088 59.572C8.29088 58.196 8.51488 57.124 8.96288 56.356C9.41088 55.58 10.1949 55.192 11.3149 55.192C12.4269 55.192 13.2069 55.58 13.6549 56.356C14.1029 57.124 14.3269 58.196 14.3269 59.572C14.3269 60.972 14.1029 62.06 13.6549 62.836C13.2069 63.612 12.4269 64 11.3149 64C10.1949 64 9.41088 63.612 8.96288 62.836C8.51488 62.06 8.29088 60.972 8.29088 59.572ZM13.2469 59.572C13.2469 58.876 13.1989 58.288 13.1029 57.808C13.0149 57.32 12.8269 56.928 12.5389 56.632C12.2589 56.336 11.8509 56.188 11.3149 56.188C10.7709 56.188 10.3549 56.336 10.0669 56.632C9.78688 56.928 9.59888 57.32 9.50288 57.808C9.41488 58.288 9.37088 58.876 9.37088 59.572C9.37088 60.292 9.41488 60.896 9.50288 61.384C9.59888 61.872 9.78688 62.264 10.0669 62.56C10.3549 62.856 10.7709 63.004 11.3149 63.004C11.8509 63.004 12.2589 62.856 12.5389 62.56C12.8269 62.264 13.0149 61.872 13.1029 61.384C13.1989 60.896 13.2469 60.292 13.2469 59.572ZM16.354 64.072C16.146 64.072 15.97 64 15.826 63.856C15.682 63.712 15.61 63.536 15.61 63.328C15.61 63.12 15.682 62.944 15.826 62.8C15.97 62.656 16.146 62.584 16.354 62.584C16.554 62.584 16.722 62.656 16.858 62.8C17.002 62.944 17.074 63.12 17.074 63.328C17.074 63.536 17.002 63.712 16.858 63.856C16.722 64 16.554 64.072 16.354 64.072ZM18.3456 59.572C18.3456 58.196 18.5696 57.124 19.0176 56.356C19.4656 55.58 20.2496 55.192 21.3696 55.192C22.4816 55.192 23.2616 55.58 23.7096 56.356C24.1576 57.124 24.3816 58.196 24.3816 59.572C24.3816 60.972 24.1576 62.06 23.7096 62.836C23.2616 63.612 22.4816 64 21.3696 64C20.2496 64 19.4656 63.612 19.0176 62.836C18.5696 62.06 18.3456 60.972 18.3456 59.572ZM23.3016 59.572C23.3016 58.876 23.2536 58.288 23.1576 57.808C23.0696 57.32 22.8816 56.928 22.5936 56.632C22.3136 56.336 21.9056 56.188 21.3696 56.188C20.8256 56.188 20.4096 56.336 20.1216 56.632C19.8416 56.928 19.6536 57.32 19.5576 57.808C19.4696 58.288 19.4256 58.876 19.4256 59.572C19.4256 60.292 19.4696 60.896 19.5576 61.384C19.6536 61.872 19.8416 62.264 20.1216 62.56C20.4096 62.856 20.8256 63.004 21.3696 63.004C21.9056 63.004 22.3136 62.856 22.5936 62.56C22.8816 62.264 23.0696 61.872 23.1576 61.384C23.2536 60.896 23.3016 60.292 23.3016 59.572ZM25.8807 59.572C25.8807 58.196 26.1047 57.124 26.5527 56.356C27.0007 55.58 27.7847 55.192 28.9047 55.192C30.0167 55.192 30.7967 55.58 31.2447 56.356C31.6927 57.124 31.9167 58.196 31.9167 59.572C31.9167 60.972 31.6927 62.06 31.2447 62.836C30.7967 63.612 30.0167 64 28.9047 64C27.7847 64 27.0007 63.612 26.5527 62.836C26.1047 62.06 25.8807 60.972 25.8807 59.572ZM30.8367 59.572C30.8367 58.876 30.7887 58.288 30.6927 57.808C30.6047 57.32 30.4167 56.928 30.1287 56.632C29.8487 56.336 29.4407 56.188 28.9047 56.188C28.3607 56.188 27.9447 56.336 27.6567 56.632C27.3767 56.928 27.1887 57.32 27.0927 57.808C27.0047 58.288 26.9607 58.876 26.9607 59.572C26.9607 60.292 27.0047 60.896 27.0927 61.384C27.1887 61.872 27.3767 62.264 27.6567 62.56C27.9447 62.856 28.3607 63.004 28.9047 63.004C29.4407 63.004 29.8487 62.856 30.1287 62.56C30.4167 62.264 30.6047 61.872 30.6927 61.384C30.7887 60.896 30.8367 60.292 30.8367 59.572ZM33.4159 59.572C33.4159 58.196 33.6399 57.124 34.0879 56.356C34.5359 55.58 35.3199 55.192 36.4399 55.192C37.5519 55.192 38.3319 55.58 38.7799 56.356C39.2279 57.124 39.4519 58.196 39.4519 59.572C39.4519 60.972 39.2279 62.06 38.7799 62.836C38.3319 63.612 37.5519 64 36.4399 64C35.3199 64 34.5359 63.612 34.0879 62.836C33.6399 62.06 33.4159 60.972 33.4159 59.572ZM38.3719 59.572C38.3719 58.876 38.3239 58.288 38.2279 57.808C38.1399 57.32 37.9519 56.928 37.6639 56.632C37.3839 56.336 36.9759 56.188 36.4399 56.188C35.8959 56.188 35.4799 56.336 35.1919 56.632C34.9119 56.928 34.7239 57.32 34.6279 57.808C34.5399 58.288 34.4959 58.876 34.4959 59.572C34.4959 60.292 34.5399 60.896 34.6279 61.384C34.7239 61.872 34.9119 62.264 35.1919 62.56C35.4799 62.856 35.8959 63.004 36.4399 63.004C36.9759 63.004 37.3839 62.856 37.6639 62.56C37.9519 62.264 38.1399 61.872 38.2279 61.384C38.3239 60.896 38.3719 60.292 38.3719 59.572Z" fill="#9E9E9E"/>
<path d="M0.72 108.508C0.776 107.772 1.06 107.196 1.572 106.78C2.084 106.364 2.748 106.156 3.564 106.156C4.108 106.156 4.576 106.256 4.968 106.456C5.368 106.648 5.668 106.912 5.868 107.248C6.076 107.584 6.18 107.964 6.18 108.388C6.18 108.884 6.036 109.312 5.748 109.672C5.468 110.032 5.1 110.264 4.644 110.368V110.428C5.164 110.556 5.576 110.808 5.88 111.184C6.184 111.56 6.336 112.052 6.336 112.66C6.336 113.116 6.232 113.528 6.024 113.896C5.816 114.256 5.504 114.54 5.088 114.748C4.672 114.956 4.172 115.06 3.588 115.06C2.74 115.06 2.044 114.84 1.5 114.4C0.956 113.952 0.652 113.32 0.588 112.504H1.644C1.7 112.984 1.896 113.376 2.232 113.68C2.568 113.984 3.016 114.136 3.576 114.136C4.136 114.136 4.56 113.992 4.848 113.704C5.144 113.408 5.292 113.028 5.292 112.564C5.292 111.964 5.092 111.532 4.692 111.268C4.292 111.004 3.688 110.872 2.88 110.872H2.604V109.96H2.892C3.628 109.952 4.184 109.832 4.56 109.6C4.936 109.36 5.124 108.992 5.124 108.496C5.124 108.072 4.984 107.732 4.704 107.476C4.432 107.22 4.04 107.092 3.528 107.092C3.032 107.092 2.632 107.22 2.328 107.476C2.024 107.732 1.844 108.076 1.788 108.508H0.72ZM7.81041 110.572C7.81041 109.196 8.03441 108.124 8.48241 107.356C8.93041 106.58 9.71441 106.192 10.8344 106.192C11.9464 106.192 12.7264 106.58 13.1744 107.356C13.6224 108.124 13.8464 109.196 13.8464 110.572C13.8464 111.972 13.6224 113.06 13.1744 113.836C12.7264 114.612 11.9464 115 10.8344 115C9.71441 115 8.93041 114.612 8.48241 113.836C8.03441 113.06 7.81041 111.972 7.81041 110.572ZM12.7664 110.572C12.7664 109.876 12.7184 109.288 12.6224 108.808C12.5344 108.32 12.3464 107.928 12.0584 107.632C11.7784 107.336 11.3704 107.188 10.8344 107.188C10.2904 107.188 9.87441 107.336 9.58641 107.632C9.30641 107.928 9.11841 108.32 9.02241 108.808C8.93441 109.288 8.89041 109.876 8.89041 110.572C8.89041 111.292 8.93441 111.896 9.02241 112.384C9.11841 112.872 9.30641 113.264 9.58641 113.56C9.87441 113.856 10.2904 114.004 10.8344 114.004C11.3704 114.004 11.7784 113.856 12.0584 113.56C12.3464 113.264 12.5344 112.872 12.6224 112.384C12.7184 111.896 12.7664 111.292 12.7664 110.572ZM15.8736 115.072C15.6656 115.072 15.4896 115 15.3456 114.856C15.2016 114.712 15.1296 114.536 15.1296 114.328C15.1296 114.12 15.2016 113.944 15.3456 113.8C15.4896 113.656 15.6656 113.584 15.8736 113.584C16.0736 113.584 16.2416 113.656 16.3776 113.8C16.5216 113.944 16.5936 114.12 16.5936 114.328C16.5936 114.536 16.5216 114.712 16.3776 114.856C16.2416 115 16.0736 115.072 15.8736 115.072ZM17.8651 110.572C17.8651 109.196 18.0891 108.124 18.5371 107.356C18.9851 106.58 19.7691 106.192 20.8891 106.192C22.0011 106.192 22.7811 106.58 23.2291 107.356C23.6771 108.124 23.9011 109.196 23.9011 110.572C23.9011 111.972 23.6771 113.06 23.2291 113.836C22.7811 114.612 22.0011 115 20.8891 115C19.7691 115 18.9851 114.612 18.5371 113.836C18.0891 113.06 17.8651 111.972 17.8651 110.572ZM22.8211 110.572C22.8211 109.876 22.7731 109.288 22.6771 108.808C22.5891 108.32 22.4011 107.928 22.1131 107.632C21.8331 107.336 21.4251 107.188 20.8891 107.188C20.3451 107.188 19.9291 107.336 19.6411 107.632C19.3611 107.928 19.1731 108.32 19.0771 108.808C18.9891 109.288 18.9451 109.876 18.9451 110.572C18.9451 111.292 18.9891 111.896 19.0771 112.384C19.1731 112.872 19.3611 113.264 19.6411 113.56C19.9291 113.856 20.3451 114.004 20.8891 114.004C21.4251 114.004 21.8331 113.856 22.1131 113.56C22.4011 113.264 22.5891 112.872 22.6771 112.384C22.7731 111.896 22.8211 111.292 22.8211 110.572ZM25.4003 110.572C25.4003 109.196 25.6243 108.124 26.0723 107.356C26.5203 106.58 27.3043 106.192 28.4243 106.192C29.5363 106.192 30.3163 106.58 30.7643 107.356C31.2122 108.124 31.4362 109.196 31.4362 110.572C31.4362 111.972 31.2122 113.06 30.7643 113.836C30.3163 114.612 29.5363 115 28.4243 115C27.3043 115 26.5203 114.612 26.0723 113.836C25.6243 113.06 25.4003 111.972 25.4003 110.572ZM30.3563 110.572C30.3563 109.876 30.3083 109.288 30.2123 108.808C30.1243 108.32 29.9363 107.928 29.6483 107.632C29.3683 107.336 28.9603 107.188 28.4243 107.188C27.8803 107.188 27.4643 107.336 27.1763 107.632C26.8963 107.928 26.7083 108.32 26.6123 108.808C26.5243 109.288 26.4803 109.876 26.4803 110.572C26.4803 111.292 26.5243 111.896 26.6123 112.384C26.7083 112.872 26.8963 113.264 27.1763 113.56C27.4643 113.856 27.8803 114.004 28.4243 114.004C28.9603 114.004 29.3683 113.856 29.6483 113.56C29.9363 113.264 30.1243 112.872 30.2123 112.384C30.3083 111.896 30.3563 111.292 30.3563 110.572ZM32.9354 110.572C32.9354 109.196 33.1594 108.124 33.6074 107.356C34.0554 106.58 34.8394 106.192 35.9594 106.192C37.0714 106.192 37.8514 106.58 38.2994 107.356C38.7474 108.124 38.9714 109.196 38.9714 110.572C38.9714 111.972 38.7474 113.06 38.2994 113.836C37.8514 114.612 37.0714 115 35.9594 115C34.8394 115 34.0554 114.612 33.6074 113.836C33.1594 113.06 32.9354 111.972 32.9354 110.572ZM37.8914 110.572C37.8914 109.876 37.8434 109.288 37.7474 108.808C37.6594 108.32 37.4714 107.928 37.1834 107.632C36.9034 107.336 36.4954 107.188 35.9594 107.188C35.4154 107.188 34.9994 107.336 34.7114 107.632C34.4314 107.928 34.2434 108.32 34.1474 108.808C34.0594 109.288 34.0154 109.876 34.0154 110.572C34.0154 111.292 34.0594 111.896 34.1474 112.384C34.2434 112.872 34.4314 113.264 34.7114 113.56C34.9994 113.856 35.4154 114.004 35.9594 114.004C36.4954 114.004 36.9034 113.856 37.1834 113.56C37.4714 113.264 37.6594 112.872 37.7474 112.384C37.8434 111.896 37.8914 111.292 37.8914 110.572Z" fill="#9E9E9E"/>
<path d="M0.612 165.124C1.628 164.308 2.424 163.64 3 163.12C3.576 162.592 4.06 162.044 4.452 161.476C4.852 160.9 5.052 160.336 5.052 159.784C5.052 159.264 4.924 158.856 4.668 158.56C4.42 158.256 4.016 158.104 3.456 158.104C2.912 158.104 2.488 158.276 2.184 158.62C1.888 158.956 1.728 159.408 1.704 159.976H0.648C0.68 159.08 0.952 158.388 1.464 157.9C1.976 157.412 2.636 157.168 3.444 157.168C4.268 157.168 4.92 157.396 5.4 157.852C5.888 158.308 6.132 158.936 6.132 159.736C6.132 160.4 5.932 161.048 5.532 161.68C5.14 162.304 4.692 162.856 4.188 163.336C3.684 163.808 3.04 164.36 2.256 164.992H6.384V165.904H0.612V165.124ZM7.64634 161.572C7.64634 160.196 7.87034 159.124 8.31834 158.356C8.76634 157.58 9.55034 157.192 10.6703 157.192C11.7823 157.192 12.5623 157.58 13.0103 158.356C13.4583 159.124 13.6823 160.196 13.6823 161.572C13.6823 162.972 13.4583 164.06 13.0103 164.836C12.5623 165.612 11.7823 166 10.6703 166C9.55034 166 8.76634 165.612 8.31834 164.836C7.87034 164.06 7.64634 162.972 7.64634 161.572ZM12.6023 161.572C12.6023 160.876 12.5543 160.288 12.4583 159.808C12.3703 159.32 12.1823 158.928 11.8943 158.632C11.6143 158.336 11.2063 158.188 10.6703 158.188C10.1263 158.188 9.71034 158.336 9.42234 158.632C9.14234 158.928 8.95434 159.32 8.85834 159.808C8.77034 160.288 8.72634 160.876 8.72634 161.572C8.72634 162.292 8.77034 162.896 8.85834 163.384C8.95434 163.872 9.14234 164.264 9.42234 164.56C9.71034 164.856 10.1263 165.004 10.6703 165.004C11.2063 165.004 11.6143 164.856 11.8943 164.56C12.1823 164.264 12.3703 163.872 12.4583 163.384C12.5543 162.896 12.6023 162.292 12.6023 161.572ZM15.7095 166.072C15.5015 166.072 15.3255 166 15.1815 165.856C15.0375 165.712 14.9655 165.536 14.9655 165.328C14.9655 165.12 15.0375 164.944 15.1815 164.8C15.3255 164.656 15.5015 164.584 15.7095 164.584C15.9095 164.584 16.0775 164.656 16.2135 164.8C16.3575 164.944 16.4295 165.12 16.4295 165.328C16.4295 165.536 16.3575 165.712 16.2135 165.856C16.0775 166 15.9095 166.072 15.7095 166.072ZM17.701 161.572C17.701 160.196 17.925 159.124 18.373 158.356C18.821 157.58 19.605 157.192 20.725 157.192C21.837 157.192 22.617 157.58 23.065 158.356C23.513 159.124 23.737 160.196 23.737 161.572C23.737 162.972 23.513 164.06 23.065 164.836C22.617 165.612 21.837 166 20.725 166C19.605 166 18.821 165.612 18.373 164.836C17.925 164.06 17.701 162.972 17.701 161.572ZM22.657 161.572C22.657 160.876 22.609 160.288 22.513 159.808C22.425 159.32 22.237 158.928 21.949 158.632C21.669 158.336 21.261 158.188 20.725 158.188C20.181 158.188 19.765 158.336 19.477 158.632C19.197 158.928 19.009 159.32 18.913 159.808C18.825 160.288 18.781 160.876 18.781 161.572C18.781 162.292 18.825 162.896 18.913 163.384C19.009 163.872 19.197 164.264 19.477 164.56C19.765 164.856 20.181 165.004 20.725 165.004C21.261 165.004 21.669 164.856 21.949 164.56C22.237 164.264 22.425 163.872 22.513 163.384C22.609 162.896 22.657 162.292 22.657 161.572ZM25.2362 161.572C25.2362 160.196 25.4602 159.124 25.9082 158.356C26.3562 157.58 27.1402 157.192 28.2602 157.192C29.3722 157.192 30.1522 157.58 30.6002 158.356C31.0482 159.124 31.2722 160.196 31.2722 161.572C31.2722 162.972 31.0482 164.06 30.6002 164.836C30.1522 165.612 29.3722 166 28.2602 166C27.1402 166 26.3562 165.612 25.9082 164.836C25.4602 164.06 25.2362 162.972 25.2362 161.572ZM30.1922 161.572C30.1922 160.876 30.1442 160.288 30.0482 159.808C29.9602 159.32 29.7722 158.928 29.4842 158.632C29.2042 158.336 28.7962 158.188 28.2602 158.188C27.7162 158.188 27.3002 158.336 27.0122 158.632C26.7322 158.928 26.5442 159.32 26.4482 159.808C26.3602 160.288 26.3162 160.876 26.3162 161.572C26.3162 162.292 26.3602 162.896 26.4482 163.384C26.5442 163.872 26.7322 164.264 27.0122 164.56C27.3002 164.856 27.7162 165.004 28.2602 165.004C28.7962 165.004 29.2042 164.856 29.4842 164.56C29.7722 164.264 29.9602 163.872 30.0482 163.384C30.1442 162.896 30.1922 162.292 30.1922 161.572ZM32.7713 161.572C32.7713 160.196 32.9953 159.124 33.4433 158.356C33.8913 157.58 34.6753 157.192 35.7953 157.192C36.9073 157.192 37.6873 157.58 38.1353 158.356C38.5833 159.124 38.8073 160.196 38.8073 161.572C38.8073 162.972 38.5833 164.06 38.1353 164.836C37.6873 165.612 36.9073 166 35.7953 166C34.6753 166 33.8913 165.612 33.4433 164.836C32.9953 164.06 32.7713 162.972 32.7713 161.572ZM37.7273 161.572C37.7273 160.876 37.6793 160.288 37.5833 159.808C37.4953 159.32 37.3073 158.928 37.0193 158.632C36.7393 158.336 36.3313 158.188 35.7953 158.188C35.2513 158.188 34.8353 158.336 34.5473 158.632C34.2673 158.928 34.0793 159.32 33.9833 159.808C33.8953 160.288 33.8513 160.876 33.8513 161.572C33.8513 162.292 33.8953 162.896 33.9833 163.384C34.0793 163.872 34.2673 164.264 34.5473 164.56C34.8353 164.856 35.2513 165.004 35.7953 165.004C36.3313 165.004 36.7393 164.856 37.0193 164.56C37.3073 164.264 37.4953 163.872 37.5833 163.384C37.6793 162.896 37.7273 162.292 37.7273 161.572Z" fill="#9E9E9E"/>
<path d="M0.456 209.32V208.324H2.712V217H1.608V209.32H0.456ZM4.58775 212.572C4.58775 211.196 4.81175 210.124 5.25975 209.356C5.70775 208.58 6.49175 208.192 7.61175 208.192C8.72375 208.192 9.50375 208.58 9.95175 209.356C10.3997 210.124 10.6237 211.196 10.6237 212.572C10.6237 213.972 10.3997 215.06 9.95175 215.836C9.50375 216.612 8.72375 217 7.61175 217C6.49175 217 5.70775 216.612 5.25975 215.836C4.81175 215.06 4.58775 213.972 4.58775 212.572ZM9.54375 212.572C9.54375 211.876 9.49575 211.288 9.39975 210.808C9.31175 210.32 9.12375 209.928 8.83575 209.632C8.55575 209.336 8.14775 209.188 7.61175 209.188C7.06775 209.188 6.65175 209.336 6.36375 209.632C6.08375 209.928 5.89575 210.32 5.79975 210.808C5.71175 211.288 5.66775 211.876 5.66775 212.572C5.66775 213.292 5.71175 213.896 5.79975 214.384C5.89575 214.872 6.08375 215.264 6.36375 215.56C6.65175 215.856 7.06775 216.004 7.61175 216.004C8.14775 216.004 8.55575 215.856 8.83575 215.56C9.12375 215.264 9.31175 214.872 9.39975 214.384C9.49575 213.896 9.54375 213.292 9.54375 212.572ZM12.6509 217.072C12.4429 217.072 12.2669 217 12.1229 216.856C11.9789 216.712 11.9069 216.536 11.9069 216.328C11.9069 216.12 11.9789 215.944 12.1229 215.8C12.2669 215.656 12.4429 215.584 12.6509 215.584C12.8509 215.584 13.0189 215.656 13.1549 215.8C13.2989 215.944 13.3709 216.12 13.3709 216.328C13.3709 216.536 13.2989 216.712 13.1549 216.856C13.0189 217 12.8509 217.072 12.6509 217.072ZM14.6424 212.572C14.6424 211.196 14.8664 210.124 15.3144 209.356C15.7624 208.58 16.5464 208.192 17.6664 208.192C18.7784 208.192 19.5584 208.58 20.0064 209.356C20.4544 210.124 20.6784 211.196 20.6784 212.572C20.6784 213.972 20.4544 215.06 20.0064 215.836C19.5584 216.612 18.7784 217 17.6664 217C16.5464 217 15.7624 216.612 15.3144 215.836C14.8664 215.06 14.6424 213.972 14.6424 212.572ZM19.5984 212.572C19.5984 211.876 19.5504 211.288 19.4544 210.808C19.3664 210.32 19.1784 209.928 18.8904 209.632C18.6104 209.336 18.2024 209.188 17.6664 209.188C17.1224 209.188 16.7064 209.336 16.4184 209.632C16.1384 209.928 15.9504 210.32 15.8544 210.808C15.7664 211.288 15.7224 211.876 15.7224 212.572C15.7224 213.292 15.7664 213.896 15.8544 214.384C15.9504 214.872 16.1384 215.264 16.4184 215.56C16.7064 215.856 17.1224 216.004 17.6664 216.004C18.2024 216.004 18.6104 215.856 18.8904 215.56C19.1784 215.264 19.3664 214.872 19.4544 214.384C19.5504 213.896 19.5984 213.292 19.5984 212.572ZM22.1776 212.572C22.1776 211.196 22.4016 210.124 22.8496 209.356C23.2976 208.58 24.0816 208.192 25.2016 208.192C26.3136 208.192 27.0936 208.58 27.5416 209.356C27.9896 210.124 28.2136 211.196 28.2136 212.572C28.2136 213.972 27.9896 215.06 27.5416 215.836C27.0936 216.612 26.3136 217 25.2016 217C24.0816 217 23.2976 216.612 22.8496 215.836C22.4016 215.06 22.1776 213.972 22.1776 212.572ZM27.1336 212.572C27.1336 211.876 27.0856 211.288 26.9896 210.808C26.9016 210.32 26.7136 209.928 26.4256 209.632C26.1456 209.336 25.7376 209.188 25.2016 209.188C24.6576 209.188 24.2416 209.336 23.9536 209.632C23.6736 209.928 23.4856 210.32 23.3896 210.808C23.3016 211.288 23.2576 211.876 23.2576 212.572C23.2576 213.292 23.3016 213.896 23.3896 214.384C23.4856 214.872 23.6736 215.264 23.9536 215.56C24.2416 215.856 24.6576 216.004 25.2016 216.004C25.7376 216.004 26.1456 215.856 26.4256 215.56C26.7136 215.264 26.9016 214.872 26.9896 214.384C27.0856 213.896 27.1336 213.292 27.1336 212.572ZM29.7128 212.572C29.7128 211.196 29.9368 210.124 30.3848 209.356C30.8328 208.58 31.6168 208.192 32.7368 208.192C33.8488 208.192 34.6288 208.58 35.0768 209.356C35.5247 210.124 35.7487 211.196 35.7487 212.572C35.7487 213.972 35.5247 215.06 35.0768 215.836C34.6288 216.612 33.8488 217 32.7368 217C31.6168 217 30.8328 216.612 30.3848 215.836C29.9368 215.06 29.7128 213.972 29.7128 212.572ZM34.6688 212.572C34.6688 211.876 34.6208 211.288 34.5248 210.808C34.4368 210.32 34.2488 209.928 33.9608 209.632C33.6808 209.336 33.2728 209.188 32.7368 209.188C32.1928 209.188 31.7768 209.336 31.4888 209.632C31.2088 209.928 31.0208 210.32 30.9248 210.808C30.8368 211.288 30.7928 211.876 30.7928 212.572C30.7928 213.292 30.8368 213.896 30.9248 214.384C31.0208 214.872 31.2088 215.264 31.4888 215.56C31.7768 215.856 32.1928 216.004 32.7368 216.004C33.2728 216.004 33.6808 215.856 33.9608 215.56C34.2488 215.264 34.4368 214.872 34.5248 214.384C34.6208 213.896 34.6688 213.292 34.6688 212.572Z" fill="#9E9E9E"/>
<g opacity="0.1">
<rect x="58" y="197" width="8" height="16" fill="#3A6FF8"/>
<rect x="71" y="191" width="8" height="22" fill="#3A6FF8"/>
<rect x="84" y="181" width="8" height="32" fill="#3A6FF8"/>
<rect x="97" y="196" width="8" height="17" fill="#3A6FF8"/>
<rect x="110" y="203" width="8" height="10" fill="#3A6FF8"/>
<rect x="123" y="200" width="8" height="13" fill="#3A6FF8"/>
<rect x="136" y="189" width="8" height="24" fill="#3A6FF8"/>
<rect x="149" y="199" width="8" height="14" fill="#3A6FF8"/>
<rect x="162" y="205" width="8" height="8" fill="#3A6FF8"/>
<rect x="175" y="197" width="8" height="16" fill="#3A6FF8"/>
<rect x="188" y="191" width="8" height="22" fill="#3A6FF8"/>
<rect x="201" y="181" width="8" height="32" fill="#3A6FF8"/>
<rect x="214" y="196" width="8" height="17" fill="#3A6FF8"/>
<rect x="227" y="203" width="8" height="10" fill="#3A6FF8"/>
<rect x="240" y="199" width="8" height="14" fill="#3A6FF8"/>
<rect x="253" y="205" width="8" height="8" fill="#3A6FF8"/>
<rect x="266" y="181" width="8" height="32" fill="#3A6FF8"/>
<rect x="279" y="196" width="8" height="17" fill="#3A6FF8"/>
<rect x="292" y="203" width="8" height="10" fill="#3A6FF8"/>
<rect x="305" y="200" width="8" height="13" fill="#3A6FF8"/>
<rect x="318" y="189" width="8" height="24" fill="#3A6FF8"/>
<rect x="331" y="197" width="8" height="16" fill="#3A6FF8"/>
<rect x="344" y="199" width="8" height="14" fill="#3A6FF8"/>
<rect x="357" y="205" width="8" height="8" fill="#3A6FF8"/>
<rect x="370" y="181" width="8" height="32" fill="#3A6FF8"/>
<rect x="383" y="196" width="8" height="17" fill="#3A6FF8"/>
<rect x="396" y="203" width="8" height="10" fill="#3A6FF8"/>
<rect x="409" y="199" width="8" height="14" fill="#3A6FF8"/>
<rect x="422" y="205" width="8" height="8" fill="#3A6FF8"/>
<rect x="435" y="181" width="8" height="32" fill="#3A6FF8"/>
<rect x="448" y="196" width="8" height="17" fill="#3A6FF8"/>
<rect x="461" y="203" width="8" height="10" fill="#3A6FF8"/>
<rect x="474" y="189" width="8" height="24" fill="#3A6FF8"/>
<rect x="487" y="199" width="8" height="14" fill="#3A6FF8"/>
<rect x="500" y="205" width="8" height="8" fill="#3A6FF8"/>
<rect x="513" y="197" width="8" height="16" fill="#3A6FF8"/>
<rect x="526" y="191" width="8" height="22" fill="#3A6FF8"/>
<rect x="539" y="181" width="8" height="32" fill="#3A6FF8"/>
<rect x="552" y="196" width="8" height="17" fill="#3A6FF8"/>
<rect x="565" y="203" width="8" height="10" fill="#3A6FF8"/>
<rect x="578" y="199" width="8" height="14" fill="#3A6FF8"/>
<rect x="591" y="205" width="8" height="8" fill="#3A6FF8"/>
<rect x="604" y="191" width="8" height="22" fill="#3A6FF8"/>
<rect x="617" y="181" width="8" height="32" fill="#3A6FF8"/>
<rect x="630" y="196" width="8" height="17" fill="#3A6FF8"/>
<rect x="643" y="203" width="8" height="10" fill="#3A6FF8"/>
<rect x="656" y="191" width="8" height="22" fill="#3A6FF8"/>
<rect x="669" y="181" width="8" height="32" fill="#3A6FF8"/>
</g>
</svg>
