<svg width="24" height="24" viewBox="0 0 24 24" fill="none" xmlns="http://www.w3.org/2000/svg">
<path d="M8.77011 14.43L10.3801 15.15C11.4101 15.61 12.5901 15.61 13.6301 15.15L15.2401 14.43C16.6801 13.79 18.0101 15.53 17.0101 16.75L13.5501 20.98C12.7001 22.02 11.3101 22.02 10.4501 20.98L7.00011 16.75C5.99011 15.53 7.32011 13.79 8.77011 14.43Z" fill="#3A6FF8"/>
<path d="M8.56978 11.67C8.26978 11.89 8.30978 12.35 8.64978 12.52L10.9998 13.69C11.5498 13.97 12.4398 13.97 12.9798 13.69L15.3298 12.52C15.6598 12.35 15.6998 11.9 15.4098 11.67L12.2998 9.32998C12.1198 9.19998 11.8798 9.19998 11.6998 9.32998L8.56978 11.67Z" fill="#3A6FF8"/>
<path d="M17.8798 8.24002L13.7098 3.04002C13.6298 2.94002 13.5398 2.85002 13.4498 2.76002C13.1898 2.51002 12.8198 2.74002 12.8198 3.10002V7.40002C12.8198 7.56002 12.8898 7.71002 13.0198 7.80002L17.1698 10.92L17.3498 11.05C17.5298 11.18 17.7798 11.18 17.9298 11.02C18.6298 10.26 18.6198 9.16002 17.8798 8.24002Z" fill="#3A6FF8"/>
<path d="M6.10986 8.33003L10.2599 3.05003C10.3399 2.95003 10.4199 2.86003 10.5099 2.77003C10.7699 2.52003 11.1399 2.74003 11.1399 3.11003V7.48003C11.1399 7.64003 11.0699 7.78003 10.9399 7.88003L6.80985 11.05L6.63985 11.18C6.45985 11.31 6.20986 11.31 6.04986 11.14C5.36986 10.37 5.37986 9.27003 6.10986 8.33003Z" fill="#3A6FF8"/>
</svg>
