<svg width="170" height="41" viewBox="0 0 170 41" fill="none" xmlns="http://www.w3.org/2000/svg">
<path d="M50.3274 28V12.7273H53.5565V25.3377H60.104V28H50.3274ZM67.3582 28.2237C66.1998 28.2237 65.1981 27.9776 64.3529 27.4854C63.5127 26.9883 62.8639 26.2972 62.4065 25.4123C61.9491 24.5224 61.7204 23.4908 61.7204 22.3175C61.7204 21.1342 61.9491 20.1001 62.4065 19.2152C62.8639 18.3253 63.5127 17.6342 64.3529 17.142C65.1981 16.6449 66.1998 16.3963 67.3582 16.3963C68.5166 16.3963 69.5159 16.6449 70.3561 17.142C71.2013 17.6342 71.8525 18.3253 72.3099 19.2152C72.7673 20.1001 72.996 21.1342 72.996 22.3175C72.996 23.4908 72.7673 24.5224 72.3099 25.4123C71.8525 26.2972 71.2013 26.9883 70.3561 27.4854C69.5159 27.9776 68.5166 28.2237 67.3582 28.2237ZM67.3731 25.7628C67.9001 25.7628 68.3401 25.6136 68.6931 25.3153C69.0461 25.0121 69.3121 24.5994 69.491 24.0774C69.675 23.5554 69.767 22.9613 69.767 22.2951C69.767 21.6289 69.675 21.0348 69.491 20.5128C69.3121 19.9908 69.0461 19.5781 68.6931 19.2749C68.3401 18.9716 67.9001 18.82 67.3731 18.82C66.8412 18.82 66.3937 18.9716 66.0308 19.2749C65.6729 19.5781 65.4019 19.9908 65.218 20.5128C65.039 21.0348 64.9495 21.6289 64.9495 22.2951C64.9495 22.9613 65.039 23.5554 65.218 24.0774C65.4019 24.5994 65.6729 25.0121 66.0308 25.3153C66.3937 25.6136 66.8412 25.7628 67.3731 25.7628ZM80.2222 32.5341C79.1931 32.5341 78.3106 32.3924 77.5748 32.109C76.844 31.8306 76.2623 31.4503 75.8298 30.968C75.3973 30.4858 75.1164 29.9439 74.9871 29.3423L77.9253 28.9471C78.0148 29.1758 78.1565 29.3896 78.3504 29.5884C78.5443 29.7873 78.8003 29.9464 79.1185 30.0657C79.4417 30.19 79.8344 30.2521 80.2968 30.2521C80.9878 30.2521 81.5571 30.0831 82.0045 29.745C82.4569 29.4119 82.6832 28.8526 82.6832 28.0671V25.9716H82.5489C82.4097 26.2898 82.2009 26.5906 81.9225 26.8739C81.6441 27.1573 81.2861 27.3885 80.8486 27.5675C80.4111 27.7464 79.8891 27.8359 79.2826 27.8359C78.4225 27.8359 77.6395 27.6371 76.9335 27.2393C76.2325 26.8366 75.6732 26.2227 75.2556 25.3974C74.843 24.5671 74.6366 23.5181 74.6366 22.2504C74.6366 20.9528 74.8479 19.869 75.2705 18.9989C75.6931 18.1289 76.2549 17.4776 76.9559 17.0451C77.6618 16.6126 78.4349 16.3963 79.2751 16.3963C79.9165 16.3963 80.4534 16.5057 80.8859 16.7244C81.3184 16.9382 81.6665 17.2067 81.93 17.5298C82.1984 17.848 82.4047 18.1612 82.5489 18.4695H82.6682V16.5455H85.8227V28.1119C85.8227 29.0863 85.5841 29.9016 85.1068 30.5579C84.6295 31.2141 83.9683 31.7063 83.1231 32.0344C82.2829 32.3675 81.316 32.5341 80.2222 32.5341ZM80.2893 25.4496C80.8014 25.4496 81.2339 25.3228 81.5869 25.0692C81.9449 24.8107 82.2183 24.4428 82.4072 23.9656C82.6011 23.4833 82.6981 22.9066 82.6981 22.2354C82.6981 21.5643 82.6036 20.9826 82.4147 20.4904C82.2258 19.9933 81.9523 19.608 81.5944 19.3345C81.2364 19.0611 80.8014 18.9244 80.2893 18.9244C79.7673 18.9244 79.3273 19.0661 78.9694 19.3494C78.6114 19.6278 78.3405 20.0156 78.1565 20.5128C77.9726 21.0099 77.8806 21.5842 77.8806 22.2354C77.8806 22.8967 77.9726 23.4684 78.1565 23.9506C78.3454 24.4279 78.6164 24.7983 78.9694 25.0618C79.3273 25.3203 79.7673 25.4496 80.2893 25.4496ZM93.5262 28.2237C92.3678 28.2237 91.366 27.9776 90.5209 27.4854C89.6807 26.9883 89.0319 26.2972 88.5745 25.4123C88.1171 24.5224 87.8884 23.4908 87.8884 22.3175C87.8884 21.1342 88.1171 20.1001 88.5745 19.2152C89.0319 18.3253 89.6807 17.6342 90.5209 17.142C91.366 16.6449 92.3678 16.3963 93.5262 16.3963C94.6846 16.3963 95.6839 16.6449 96.5241 17.142C97.3692 17.6342 98.0205 18.3253 98.4779 19.2152C98.9353 20.1001 99.164 21.1342 99.164 22.3175C99.164 23.4908 98.9353 24.5224 98.4779 25.4123C98.0205 26.2972 97.3692 26.9883 96.5241 27.4854C95.6839 27.9776 94.6846 28.2237 93.5262 28.2237ZM93.5411 25.7628C94.0681 25.7628 94.5081 25.6136 94.8611 25.3153C95.214 25.0121 95.48 24.5994 95.659 24.0774C95.843 23.5554 95.9349 22.9613 95.9349 22.2951C95.9349 21.6289 95.843 21.0348 95.659 20.5128C95.48 19.9908 95.214 19.5781 94.8611 19.2749C94.5081 18.9716 94.0681 18.82 93.5411 18.82C93.0091 18.82 92.5617 18.9716 92.1988 19.2749C91.8408 19.5781 91.5699 19.9908 91.3859 20.5128C91.2069 21.0348 91.1175 21.6289 91.1175 22.2951C91.1175 22.9613 91.2069 23.5554 91.3859 24.0774C91.5699 24.5994 91.8408 25.0121 92.1988 25.3153C92.5617 25.6136 93.0091 25.7628 93.5411 25.7628ZM101.23 28V16.5455H104.407V28H101.23ZM102.826 15.0689C102.353 15.0689 101.948 14.9123 101.61 14.5991C101.277 14.2809 101.11 13.9006 101.11 13.4581C101.11 13.0206 101.277 12.6452 101.61 12.332C101.948 12.0138 102.353 11.8548 102.826 11.8548C103.298 11.8548 103.701 12.0138 104.034 12.332C104.372 12.6452 104.541 13.0206 104.541 13.4581C104.541 13.9006 104.372 14.2809 104.034 14.5991C103.701 14.9123 103.298 15.0689 102.826 15.0689ZM106.951 32.2955V16.5455H110.083V18.4695H110.225C110.364 18.1612 110.566 17.848 110.829 17.5298C111.098 17.2067 111.446 16.9382 111.873 16.7244C112.306 16.5057 112.843 16.3963 113.484 16.3963C114.319 16.3963 115.09 16.6151 115.796 17.0526C116.502 17.4851 117.066 18.1388 117.489 19.0138C117.911 19.8839 118.123 20.9751 118.123 22.2876C118.123 23.5653 117.916 24.6442 117.504 25.5241C117.096 26.3991 116.539 27.0629 115.833 27.5153C115.132 27.9627 114.347 28.1864 113.477 28.1864C112.86 28.1864 112.336 28.0845 111.903 27.8807C111.475 27.6768 111.125 27.4208 110.852 27.1126C110.578 26.7994 110.369 26.4837 110.225 26.1655H110.128V32.2955H106.951ZM110.061 22.2727C110.061 22.9538 110.156 23.5479 110.344 24.055C110.533 24.5621 110.807 24.9574 111.165 25.2408C111.523 25.5192 111.958 25.6584 112.47 25.6584C112.987 25.6584 113.424 25.5167 113.782 25.2333C114.14 24.945 114.411 24.5472 114.595 24.0401C114.784 23.5281 114.879 22.9389 114.879 22.2727C114.879 21.6115 114.787 21.0298 114.603 20.5277C114.419 20.0256 114.148 19.6328 113.79 19.3494C113.432 19.0661 112.992 18.9244 112.47 18.9244C111.953 18.9244 111.515 19.0611 111.157 19.3345C110.804 19.608 110.533 19.9957 110.344 20.4979C110.156 21 110.061 21.5916 110.061 22.2727ZM129.771 19.8118L126.863 19.9908C126.813 19.7422 126.706 19.5185 126.542 19.3196C126.378 19.1158 126.162 18.9542 125.893 18.8349C125.63 18.7106 125.314 18.6484 124.946 18.6484C124.454 18.6484 124.039 18.7528 123.701 18.9616C123.363 19.1655 123.194 19.4389 123.194 19.782C123.194 20.0554 123.303 20.2866 123.522 20.4755C123.74 20.6644 124.116 20.8161 124.648 20.9304L126.721 21.348C127.835 21.5767 128.665 21.9446 129.212 22.4517C129.759 22.9588 130.032 23.625 130.032 24.4503C130.032 25.201 129.811 25.8597 129.368 26.4265C128.931 26.9933 128.329 27.4357 127.564 27.7539C126.803 28.0671 125.925 28.2237 124.931 28.2237C123.415 28.2237 122.207 27.908 121.307 27.2766C120.412 26.6403 119.887 25.7752 119.733 24.6815L122.858 24.5174C122.952 24.9798 123.181 25.3327 123.544 25.5763C123.907 25.815 124.372 25.9343 124.939 25.9343C125.495 25.9343 125.943 25.8274 126.281 25.6136C126.624 25.3949 126.798 25.114 126.803 24.771C126.798 24.4826 126.676 24.2464 126.438 24.0625C126.199 23.8736 125.831 23.7294 125.334 23.63L123.35 23.2347C122.232 23.011 121.399 22.6232 120.852 22.0714C120.31 21.5195 120.039 20.8161 120.039 19.9609C120.039 19.2251 120.238 18.5913 120.636 18.0593C121.038 17.5273 121.603 17.1172 122.328 16.8288C123.059 16.5405 123.914 16.3963 124.894 16.3963C126.341 16.3963 127.479 16.7021 128.309 17.3136C129.145 17.9251 129.632 18.7578 129.771 19.8118ZM132.032 28V16.5455H135.06V18.5664H135.194C135.433 17.8952 135.831 17.3658 136.388 16.978C136.944 16.5902 137.611 16.3963 138.386 16.3963C139.172 16.3963 139.84 16.5927 140.392 16.9854C140.944 17.3732 141.312 17.9002 141.496 18.5664H141.615C141.849 17.9102 142.271 17.3857 142.883 16.9929C143.499 16.5952 144.228 16.3963 145.068 16.3963C146.137 16.3963 147.004 16.7369 147.671 17.418C148.342 18.0941 148.677 19.0536 148.677 20.2965V28H145.508V20.9229C145.508 20.2866 145.339 19.8093 145.001 19.4911C144.663 19.1729 144.24 19.0138 143.733 19.0138C143.156 19.0138 142.706 19.1978 142.383 19.5657C142.06 19.9286 141.899 20.4084 141.899 21.005V28H138.819V20.8558C138.819 20.294 138.657 19.8466 138.334 19.5135C138.016 19.1804 137.596 19.0138 137.074 19.0138C136.721 19.0138 136.402 19.1033 136.119 19.2823C135.841 19.4563 135.619 19.7024 135.455 20.0206C135.291 20.3338 135.209 20.7017 135.209 21.1243V28H132.032Z" fill="white"/>
<g clip-path="url(#clip0_1909_1970)">
<path d="M15.3431 10C13.3124 10 11.3649 10.8067 9.92893 12.2426L5.24264 16.9289C3.8067 18.3649 3 20.3124 3 22.3431C3 26.5719 6.42809 30 10.6569 30C12.6876 30 14.6351 29.1933 16.0711 27.7573L19.3126 24.5158C19.3126 24.5157 19.3127 24.5159 19.3126 24.5158L28.7573 15.0711C29.4431 14.3853 30.3733 14 31.3431 14C32.9669 14 34.3435 15.0583 34.8207 16.5227L37.8015 13.542C36.4417 11.4122 34.0573 10 31.3431 10C29.3124 10 27.3649 10.8067 25.9289 12.2426L13.2427 24.9289C12.5569 25.6147 11.6267 26 10.6569 26C8.63723 26 7 24.3628 7 22.3431C7 21.3733 7.38527 20.4431 8.07107 19.7573L12.7573 15.0711C13.4431 14.3853 14.3733 14 15.3431 14C16.9669 14 18.3435 15.0583 18.8207 16.5228L21.8015 13.542C20.4417 11.4123 18.0574 10 15.3431 10Z" fill="#3A6FF8"/>
<path d="M13.0439 24.9289C12.3581 25.6147 11.4279 26 10.4581 26C8.83453 26 7.45807 24.942 6.98067 23.4778L4 26.4585C5.35987 28.5879 7.74406 30 10.4581 30C12.4888 30 14.4363 29.1933 15.8723 27.7573L28.5585 15.0711C29.2443 14.3853 30.1745 14 31.1443 14C33.164 14 34.8012 15.6372 34.8012 17.6569C34.8012 18.6267 34.4159 19.5569 33.7301 20.2427L29.0439 24.9289C28.3581 25.6147 27.4279 26 26.4581 26C24.8344 26 23.4579 24.9418 22.9805 23.4775L19.9999 26.4582C21.3597 28.5879 23.7439 30 26.4581 30C28.4888 30 30.4363 29.1933 31.8723 27.7573L36.5585 23.0711C37.9945 21.6351 38.8012 19.6876 38.8012 17.6569C38.8012 13.4281 35.3731 10 31.1443 10C29.1136 10 27.1661 10.8067 25.7301 12.2426L13.0439 24.9289Z" fill="#3A6FF8"/>
</g>
<defs>
<clipPath id="clip0_1909_1970">
<rect width="36" height="20" fill="white" transform="translate(3 10)"/>
</clipPath>
</defs>
</svg>
